# Blender v3.0.0 OBJ File: ''
# www.blender.org
mtllib lowPolyBunny.mtl
o bunny
v -0.623312 1.505700 -0.405385
v -0.686053 1.317297 -0.483370
v -0.753295 1.599660 -0.450648
v -0.766018 1.233450 0.046385
v -0.575289 1.216585 0.077779
v -0.674926 1.321837 0.163163
v -0.353863 0.240441 -0.035785
v -0.565820 0.334448 -0.015526
v -0.377956 0.609933 -0.174603
v 0.150125 0.041083 -0.168942
v 0.338426 0.024863 0.095114
v 0.084153 0.053350 -0.064240
v 0.237442 0.198656 -0.206524
v 0.123399 0.732520 -0.177459
v 0.057807 0.950667 -0.083783
v 0.296481 0.979265 0.080919
v 0.068186 1.055457 0.345147
v -0.931786 0.680699 0.279470
v -0.871603 0.557553 0.042117
v -0.824864 0.412071 0.285165
v -0.937562 0.905616 0.559222
v -0.917809 1.129448 0.268630
v -0.933039 0.874419 0.214982
v -0.919337 1.298030 0.325804
v -0.763449 1.089982 0.679583
v -0.728708 0.847650 0.633885
v -0.755433 0.784557 0.506396
v -0.831337 0.908967 0.047129
v -0.298161 0.876681 -0.102337
v -0.260421 0.999418 0.327422
v -0.500488 1.026026 0.021327
v 0.350279 0.869921 0.407547
v 0.515630 0.702493 0.259208
v -0.184842 0.617601 0.692421
v 0.246119 0.563016 0.614949
v -0.164245 0.707903 0.555667
v -0.257565 0.190805 -0.228018
v -0.444812 0.031232 -0.227994
v -0.681819 0.592186 -0.133527
v -0.707240 0.154627 0.137429
v -0.440704 0.070811 -0.093340
v -0.297906 0.054117 0.316857
v 0.165851 0.039351 0.415673
v 0.418194 0.265144 0.417607
v 0.520900 0.188927 0.401408
v 0.674118 0.235338 0.187447
v 0.463218 0.355129 -0.014439
v 0.569682 0.270140 -0.014729
v -0.333540 0.033072 0.577754
v -0.490231 0.235066 0.278411
v -0.681411 0.039602 0.323400
v 0.098318 0.275270 0.663416
v 0.399849 0.587440 -0.118468
v -0.157879 0.305757 -0.315875
v -0.050563 0.633318 -0.331535
v -0.110924 1.363024 0.007822
v -0.065862 1.493297 -0.199233
v -0.135703 1.655412 -0.143436
v -0.485049 1.247947 0.235850
v -0.419963 0.999669 0.368075
v -0.566051 1.010795 0.522967
v -0.264767 1.554103 0.054497
v 0.530709 0.429032 0.278596
v -0.711824 0.032136 0.025978
v -0.559622 1.290712 0.450161
v 0.021410 0.878444 0.518686
v -0.344941 0.690377 0.547373
v -0.523323 0.364142 0.499417
v -0.264450 0.243961 0.456313
v -0.183795 0.214757 0.592964
v -0.529169 0.210915 0.493941
v -0.565578 0.558913 0.584868
v 0.180024 0.040058 0.510054
vt 0.238599 0.773594
vt 0.133810 0.657774
vt 0.248005 0.712547
vt 0.228773 0.495297
vt 0.085608 0.336430
vt 0.415074 0.627464
vt 0.712662 0.833994
vt 0.232987 0.878780
vt 0.454390 0.214834
vt 0.384956 0.250610
vt 0.439552 0.347150
vt 0.631161 0.167671
vt 0.719299 0.159514
vt 0.610327 0.160880
vt 0.662779 0.222945
vt 0.623052 0.398934
vt 0.605031 0.462414
vt 0.702735 0.459905
vt 0.634614 0.473050
vt 0.274362 0.351652
vt 0.283283 0.326141
vt 0.316553 0.269385
vt 0.290940 0.428189
vt 0.272134 0.505142
vt 0.278400 0.423496
vt 0.296826 0.550965
vt 0.347032 0.477042
vt 0.360410 0.408512
vt 0.348288 0.386811
vt 0.284077 0.447317
vt 0.235755 0.188139
vt 0.465673 0.436453
vt 0.507236 0.446711
vt 0.338860 0.344509
vt 0.741160 0.415942
vt 0.782458 0.354797
vt 0.582210 0.306823
vt 0.718280 0.310448
vt 0.569817 0.351018
vt 0.477077 0.213078
vt 0.423798 0.167593
vt 0.335232 0.345669
vt 0.347872 0.172593
vt 0.431253 0.158272
vt 0.494157 0.141044
vt 0.669423 0.135468
vt 0.765129 0.211768
vt 0.807244 0.195547
vt 0.714966 0.157553
vt 0.834677 0.220005
vt 0.762335 0.258992
vt 0.793753 0.236997
vt 0.496492 0.133933
vt 0.510509 0.125553
vt 0.408025 0.205459
vt 0.375125 0.136325
vt 0.668594 0.211550
vt 0.722782 0.349116
vt 0.519034 0.270848
vt 0.552116 0.363211
vt 0.647115 0.277663
vt 0.808793 0.341688
vt 0.691406 0.500305
vt 0.602842 0.044992
vt 0.406922 0.338150
vt 0.427269 0.421877
vt 0.408751 0.449079
vt 0.573990 0.527387
vt 0.784261 0.297249
vt 0.808391 0.264183
vt 0.337390 0.147330
vt 0.400674 0.506480
vt 0.628663 0.415495
vt 0.484904 0.336981
vt 0.430545 0.252405
vt 0.519982 0.199857
vt 0.569015 0.174424
vt 0.429677 0.174589
vt 0.405380 0.128515
vt 0.421413 0.303632
vt 0.697242 0.136702
vn 0.8408 0.4527 -0.2969
vn -0.0136 -0.5842 -0.8115
vn -0.3805 0.7953 -0.4719
vn -0.7985 0.0721 -0.5977
vn 0.5112 -0.1760 -0.8413
vn -0.1538 0.9875 0.0343
vn -0.6699 0.0737 -0.7388
vn -0.4796 -0.5113 -0.7131
vn -0.3038 0.1027 -0.9472
vn 0.2208 -0.7812 -0.5839
vn 0.3591 -0.9141 -0.1885
vn -0.0556 -0.9974 0.0467
vn 0.4889 -0.3027 -0.8182
vn 0.2615 0.5273 -0.8084
vn 0.0884 0.7527 -0.6524
vn 0.5289 0.7902 -0.3095
vn 0.0895 0.9501 0.2989
vn -0.9486 -0.1316 0.2880
vn -0.8197 -0.2778 -0.5009
vn -0.7290 -0.6414 0.2391
vn -0.8202 -0.3248 0.4709
vn -0.9517 0.1045 -0.2888
vn -0.9814 -0.0110 -0.1918
vn -0.7183 0.6946 0.0398
vn -0.0744 0.3095 0.9480
vn 0.2397 -0.6165 0.7499
vn -0.3349 -0.5275 0.7808
vn -0.6355 0.1390 -0.7595
vn -0.0564 0.6287 -0.7756
vn -0.0183 0.9382 0.3455
vn 0.2338 0.6367 -0.7348
vn 0.5915 0.5748 0.5654
vn 0.9452 0.2970 0.1357
vn -0.2697 0.3268 0.9058
vn 0.4605 0.2138 0.8615
vn -0.0263 0.6639 0.7474
vn -0.3934 -0.0590 -0.9175
vn -0.7014 -0.4581 -0.5461
vn -0.4106 -0.0973 -0.9066
vn -0.8700 0.4914 -0.0418
vn -0.6970 -0.6015 -0.3903
vn 0.0086 -0.9987 -0.0496
vn 0.2186 -0.9735 0.0664
vn 0.5151 -0.0091 0.8571
vn 0.5782 -0.3382 0.7425
vn 0.9901 -0.1397 -0.0120
vn 0.7536 0.0471 -0.6556
vn 0.5974 0.0443 -0.8007
vn -0.2027 -0.5823 0.7873
vn -0.9699 0.0262 0.2422
vn -0.7893 -0.4574 0.4096
vn 0.2005 -0.2845 0.9375
vn 0.7066 0.2196 -0.6726
vn -0.1807 -0.2553 -0.9498
vn -0.0363 0.4823 -0.8753
vn 0.7931 -0.4758 0.3803
vn 0.6497 -0.0577 -0.7580
vn 0.2391 0.9202 -0.3101
vn 0.9091 0.2728 0.3148
vn 0.4955 0.6259 0.6023
vn 0.7413 -0.1260 0.6593
vn 0.4471 0.5628 0.6953
vn 0.9049 0.2704 0.3287
vn -0.6970 -0.4525 -0.5562
vn 0.5325 0.7055 0.4676
vn 0.0875 0.3571 0.9300
vn -0.1275 0.3128 0.9412
vn -0.3556 -0.3769 0.8553
vn -0.4356 0.1470 0.8880
vn -0.4187 -0.1079 0.9017
vn -0.6644 0.1768 0.7262
vn -0.2296 -0.2106 0.9502
vn 0.3906 -0.7994 0.4565
usemtl Default_OBJ
s 1
f 1/1/1 2/2/2 3/3/3
f 4/4/4 2/2/2 5/5/5
f 1/1/1 3/3/3 6/6/6
f 2/2/2 4/4/4 3/3/3
f 3/3/3 4/4/4 6/6/6
f 5/7/5 2/8/2 1/1/1
f 7/9/7 8/10/8 9/11/9
f 10/12/10 11/13/11 12/14/12
f 10/12/10 13/15/13 11/13/11
f 14/16/14 15/17/15 16/18/16
f 17/19/17 16/18/16 15/17/15
f 18/20/18 19/21/19 20/22/20
f 21/23/21 22/24/22 23/25/23
f 24/26/24 21/23/21 25/27/25
f 26/28/26 21/23/21 27/29/27
f 20/22/20 27/29/27 18/20/18
f 24/26/24 22/24/22 21/23/21
f 18/20/18 23/25/23 19/21/19
f 28/30/28 4/4/4 5/31/5
f 15/17/15 29/32/29 30/33/30
f 28/30/28 5/31/5 31/34/31
f 17/19/17 32/35/32 16/18/16
f 16/18/16 32/35/32 33/36/33
f 34/37/34 35/38/35 36/39/36
f 36/39/36 35/38/35 32/35/32
f 37/40/37 38/41/38 7/9/7
f 8/10/8 39/42/39 9/11/9
f 39/42/39 29/32/29 9/11/9
f 39/42/39 8/10/8 19/21/19
f 8/10/8 7/9/7 40/43/40
f 41/44/41 12/14/12 42/45/42
f 11/13/11 43/46/43 12/14/12
f 44/47/44 43/46/43 45/48/45
f 11/49/11 46/50/46 45/48/45
f 47/51/47 11/13/11 13/15/13
f 46/50/46 11/49/11 48/52/48
f 42/53/42 43/46/43 49/54/49
f 40/43/40 50/55/50 8/10/8
f 8/10/8 50/55/50 20/22/20
f 40/43/40 51/56/51 50/55/50
f 35/38/35 34/37/34 52/57/52
f 33/36/33 35/38/35 44/47/44
f 53/58/53 47/51/47 13/15/13
f 53/58/53 33/36/33 47/51/47
f 37/40/37 9/11/9 54/59/54
f 55/60/55 54/59/54 9/11/9
f 55/60/55 14/16/14 53/58/53
f 56/61/56 57/62/57 58/63/58
f 5/64/5 56/61/56 59/65/59
f 5/7/5 58/63/58 57/62/57
f 13/15/13 54/59/54 55/60/55
f 14/16/14 55/60/55 9/11/9
f 10/12/10 12/14/12 38/41/38
f 55/60/55 53/58/53 13/15/13
f 38/41/38 37/40/37 10/12/10
f 37/40/37 13/15/13 10/12/10
f 54/59/54 13/15/13 37/40/37
f 16/18/16 53/58/53 14/16/14
f 53/58/53 16/18/16 33/36/33
f 14/16/14 9/11/9 29/32/29
f 14/16/14 29/32/29 15/17/15
f 41/44/41 38/41/38 12/14/12
f 59/65/59 56/61/56 58/63/58
f 5/31/5 59/65/59 60/66/60
f 60/66/60 61/67/61 27/29/27
f 61/67/61 26/28/26 27/29/27
f 58/63/58 6/6/6 62/68/62
f 6/6/6 58/63/58 5/7/5
f 62/68/62 6/6/6 59/65/59
f 37/40/37 7/9/7 9/11/9
f 5/64/5 57/69/57 56/61/56
f 31/34/31 29/32/29 39/42/39
f 31/34/31 39/42/39 28/30/28
f 41/44/41 7/9/7 38/41/38
f 59/65/59 58/63/58 62/68/62
f 31/34/31 30/33/30 29/32/29
f 5/7/5 1/1/1 6/6/6
f 23/25/23 39/42/39 19/21/19
f 63/70/63 46/50/46 47/51/47
f 47/51/47 46/50/46 48/52/48
f 64/71/64 7/9/7 41/44/41
f 28/30/28 39/42/39 23/25/23
f 11/49/11 47/51/47 48/52/48
f 19/21/19 8/10/8 20/22/20
f 40/43/40 7/9/7 64/71/64
f 30/33/30 31/34/31 60/66/60
f 22/24/22 28/30/28 23/25/23
f 28/30/28 22/24/22 4/4/4
f 30/33/30 17/19/17 15/17/15
f 24/26/24 4/4/4 22/24/22
f 4/4/4 24/26/24 6/6/6
f 60/66/60 31/34/31 5/31/5
f 63/70/63 33/36/33 44/47/44
f 61/67/61 60/66/60 59/65/59
f 59/65/59 6/6/6 65/72/65
f 47/51/47 33/36/33 63/70/63
f 64/71/64 41/44/41 42/45/42
f 51/56/51 40/43/40 64/71/64
f 42/45/42 51/56/51 64/71/64
f 42/45/42 12/14/12 43/46/43
f 45/48/45 43/46/43 11/49/11
f 66/73/66 17/19/17 30/33/30
f 36/39/36 30/33/30 67/74/67
f 35/38/35 33/36/33 32/35/32
f 46/50/46 63/70/63 45/48/45
f 24/26/24 65/72/65 6/6/6
f 67/74/67 68/75/68 69/76/69
f 34/37/34 67/74/67 69/76/69
f 70/77/70 34/37/34 69/76/69
f 20/22/20 50/55/50 68/75/68
f 59/65/59 65/72/65 61/67/61
f 23/25/23 18/20/18 27/29/27
f 71/78/71 50/55/50 51/79/51
f 50/55/50 71/78/71 68/75/68
f 44/47/44 45/48/45 63/70/63
f 21/23/21 23/25/23 27/29/27
f 27/29/27 20/22/20 68/75/68
f 36/39/36 66/73/66 30/33/30
f 65/72/65 24/26/24 25/27/25
f 66/73/66 32/35/32 17/19/17
f 27/29/27 67/74/67 60/66/60
f 30/33/30 60/66/60 67/74/67
f 65/72/65 25/27/25 61/67/61
f 72/80/72 27/29/27 68/75/68
f 32/35/32 66/73/66 36/39/36
f 73/81/73 44/47/44 52/57/52
f 44/47/44 73/81/73 43/46/43
f 43/46/43 73/81/73 49/54/49
f 26/28/26 25/27/25 21/23/21
f 68/75/68 71/78/71 69/76/69
f 49/54/49 51/79/51 42/53/42
f 67/74/67 27/29/27 72/80/72
f 72/80/72 68/75/68 67/74/67
f 61/67/61 25/27/25 26/28/26
f 67/74/67 34/37/34 36/39/36
f 49/54/49 70/77/70 69/76/69
f 44/47/44 35/38/35 52/57/52
f 73/81/73 52/57/52 70/77/70
f 49/54/49 71/78/71 51/79/51
f 69/76/69 71/78/71 49/54/49
f 34/37/34 70/77/70 52/57/52
f 70/77/70 49/54/49 73/81/73
