# Blender v3.0.0 OBJ File: 'LowPoly-Characters.blend'
# www.blender.org
mtllib newBunny.mtl
o bunny
v -0.645454 1.402617 -0.531358
v -0.623312 1.505700 -0.405385
v -0.737859 1.614106 -0.462214
v -0.724216 1.439681 -0.361884
v -0.766018 1.233450 0.046385
v -0.617609 1.194279 0.039041
v -0.919337 1.298030 0.325804
v -0.559622 1.290712 0.450161
v -0.807931 1.542630 -0.392212
v -0.728611 1.328872 0.123335
v -0.733620 1.270367 -0.335777
v -0.353863 0.240441 -0.035785
v 0.150125 0.041083 -0.168942
v 0.009823 0.496950 -0.314281
v -0.067231 0.661605 -0.316930
v 0.088008 0.065667 -0.063871
v 0.211290 0.030283 0.037773
v -0.077382 0.731407 -0.179927
v 0.195366 0.733132 -0.158797
v 0.364968 0.873269 0.389566
v 0.214314 1.031040 0.166189
v 0.067583 1.000471 -0.017172
v 0.068186 1.055457 0.345147
v -0.318250 0.560674 -0.294801
v 0.249819 0.776890 0.512939
v -0.459002 0.407521 0.516742
v -0.894744 0.845497 0.169559
v -0.917809 1.129448 0.268630
v -0.931786 0.680699 0.279470
v -0.763449 1.089982 0.679583
v -0.743728 0.801488 0.503905
v -0.937562 0.905616 0.559222
v -0.831337 0.908967 0.047129
v -0.256394 1.003232 0.211486
v -0.298161 0.876681 -0.102337
v -0.500488 1.026026 0.021327
v -0.412318 1.024130 0.306289
v -0.863995 0.512703 0.347460
v -0.490231 0.235066 0.278411
v -0.711824 0.032136 0.025978
v -0.648548 0.040474 0.305031
v -0.758709 0.118303 0.149161
v -0.084712 0.676310 0.661200
v -0.426051 0.739740 0.536763
v -0.742100 0.642528 0.539099
v -0.164245 0.707903 0.555667
v 0.021410 0.878444 0.518686
v 0.361958 0.887629 0.034275
v 0.190222 0.023013 0.388376
v 0.156735 0.210045 0.604099
v 0.180024 0.040058 0.510054
v 0.418194 0.265144 0.417607
v -0.444812 0.031232 -0.227994
v -0.511155 0.040275 -0.063122
v -0.565820 0.334448 -0.015526
v -0.871603 0.557553 0.042117
v -0.667867 0.715241 -0.109837
v 0.520900 0.188927 0.401408
v 0.530709 0.429032 0.278596
v 0.501327 0.410131 0.063766
v 0.569682 0.270140 -0.014729
v -0.260808 0.069593 0.368883
v -0.612782 0.210240 0.088048
v -0.715555 0.058682 0.426565
v -0.256306 0.021394 0.624398
v -0.264450 0.243961 0.456313
v -0.205583 0.533867 0.673436
v 0.318257 0.552314 0.562582
v 0.157610 0.573792 0.648669
v 0.399849 0.587440 -0.118468
v -0.525295 1.198713 0.091131
v -0.065862 1.493297 -0.199233
v -0.110924 1.363024 0.007822
v -0.118391 1.648433 -0.147162
v -0.157879 0.305757 -0.315875
v -0.257565 0.190805 -0.228018
v -0.373987 0.609963 -0.162887
v 0.237442 0.198656 -0.206524
v 0.038078 0.861622 -0.138551
v -0.349181 1.517838 -0.026267
v -0.496806 1.293878 0.231942
v -0.264767 1.554103 0.054497
v -0.601446 1.323370 0.154585
v -0.678250 0.507597 -0.108175
v -0.383802 0.083463 -0.089230
v -0.473375 1.198793 0.165678
v 0.379248 0.214213 -0.029466
v -0.761441 0.353988 0.227918
v 0.442063 0.053802 0.086646
v -0.958393 0.925036 0.305920
v -0.726000 0.072000 0.047300
v -0.726500 0.076500 0.053000
v -0.725766 0.074901 0.050642
v 0.022141 0.023058 0.126023
v -0.566051 1.010795 0.522967
v 0.497545 0.691744 0.105053
v -0.313450 0.037685 0.270345
v 0.674118 0.235338 0.187447
v -0.260889 0.918825 0.414189
v 0.482703 0.643538 0.359119
v -0.690644 0.410730 0.466509
v 0.062249 0.074314 0.403738
v -0.503823 0.219449 0.459633
v -0.495841 0.889487 0.450196
v -0.318835 0.584523 0.537620
v -0.252542 0.140088 0.645075
v -0.728708 0.847650 0.633885
v -0.386180 0.041049 0.533305
v -0.565578 0.558913 0.584868
v -0.592416 0.157276 0.559292
v -0.151800 0.193918 0.585524
v -0.005311 0.366514 0.676894
vt 0.238599 0.773594
vt 0.134521 0.704639
vt 0.248495 0.719547
vt 0.288073 0.152807
vt 0.338860 0.344509
vt 0.175517 0.228819
vt 0.228773 0.495297
vt 0.132659 0.581883
vt 0.085608 0.336430
vt 0.352423 0.616632
vt 0.212046 0.651515
vt 0.260759 0.687298
vt 0.616620 0.901301
vt 0.232987 0.878780
vt 0.454390 0.214834
vt 0.384956 0.250610
vt 0.438210 0.347587
vt 0.571200 0.322710
vt 0.519034 0.270848
vt 0.547967 0.372016
vt 0.631161 0.167671
vt 0.673377 0.154706
vt 0.610240 0.161178
vt 0.728306 0.218992
vt 0.746382 0.159703
vt 0.615430 0.143434
vt 0.662779 0.222945
vt 0.551660 0.400226
vt 0.649131 0.398463
vt 0.596059 0.444819
vt 0.720992 0.442466
vt 0.612031 0.476142
vt 0.634614 0.473050
vt 0.683315 0.478455
vt 0.266465 0.435076
vt 0.285633 0.416479
vt 0.348117 0.392911
vt 0.274362 0.351652
vt 0.283283 0.326141
vt 0.301343 0.294238
vt 0.329065 0.248939
vt 0.290940 0.428189
vt 0.272134 0.505142
vt 0.296826 0.550965
vt 0.347032 0.477042
vt 0.360410 0.408512
vt 0.349755 0.334315
vt 0.284077 0.447317
vt 0.465673 0.436453
vt 0.500026 0.463546
vt 0.370167 0.255765
vt 0.337390 0.147330
vt 0.332164 0.160784
vt 0.377631 0.194965
vt 0.373706 0.135919
vt 0.743880 0.420540
vt 0.773184 0.374024
vt 0.607652 0.333393
vt 0.687193 0.307913
vt 0.569817 0.351018
vt 0.719612 0.379506
vt 0.477077 0.213078
vt 0.423798 0.167593
vt 0.337227 0.383988
vt 0.333866 0.319428
vt 0.454659 0.162098
vt 0.503511 0.146400
vt 0.675890 0.133275
vt 0.765129 0.211768
vt 0.675398 0.132758
vt 0.807244 0.195547
vt 0.834677 0.220005
vt 0.753988 0.163146
vt 0.782027 0.282140
vt 0.793753 0.236997
vt 0.517366 0.140325
vt 0.647451 0.142915
vt 0.543851 0.123776
vt 0.408025 0.205459
vt 0.379998 0.137718
vt 0.412771 0.125834
vt 0.480160 0.128932
vt 0.485133 0.126905
vt 0.641029 0.234950
vt 0.689226 0.194036
vt 0.573849 0.178661
vt 0.789396 0.340411
vt 0.747529 0.312834
vt 0.722782 0.349116
vt 0.461426 0.340029
vt 0.647115 0.277663
vt 0.808793 0.341688
vt 0.693078 0.498207
vt 0.602842 0.044992
vt 0.375668 0.208719
vt 0.796075 0.775537
vt 0.652890 0.548621
vt 0.573990 0.527387
vt 0.421198 0.397273
vt 0.424675 0.421474
vt 0.433942 0.422915
vt 0.408751 0.449079
vt 0.485118 0.639573
vt 0.784261 0.297249
vt 0.397510 0.152756
vt 0.808391 0.264183
vt 0.486837 0.136853
vt 0.441400 0.798100
vt 0.441100 0.793600
vt 0.441677 0.795508
vt 0.400674 0.506480
vt 0.514614 0.429487
vt 0.628663 0.415495
vt 0.465690 0.368024
vt 0.507468 0.300526
vt 0.453812 0.251109
vt 0.519982 0.199857
vt 0.564879 0.288723
vt 0.437716 0.182861
vt 0.409628 0.153958
vt 0.421413 0.303632
vt 0.697242 0.136702
vt 0.542328 0.151032
vn 0.8858 0.4626 -0.0367
vn 0.2065 -0.2862 -0.9356
vn -0.2169 0.8233 -0.5246
vn 0.4319 0.0456 -0.9008
vn 0.2453 0.5698 -0.7843
vn 0.4375 0.1698 -0.8830
vn -0.8578 -0.0542 -0.5111
vn -0.5037 -0.7443 -0.4384
vn -0.1787 0.9798 -0.0893
vn -0.8445 -0.3346 -0.4182
vn -0.9262 0.1923 -0.3243
vn -0.6669 0.0955 -0.7390
vn -0.4437 -0.5653 -0.6954
vn -0.4158 0.1469 -0.8975
vn 0.2537 0.0113 -0.9672
vn -0.1103 -0.3123 -0.9436
vn -0.0086 0.5383 -0.8427
vn 0.2950 -0.7959 -0.5287
vn 0.1962 -0.9454 -0.2602
vn -0.1458 -0.9884 0.0437
vn 0.5048 -0.3773 -0.7764
vn 0.4085 -0.8512 -0.3294
vn -0.9226 -0.3636 -0.1291
vn 0.5183 -0.3487 -0.7809
vn -0.1232 0.6195 -0.7753
vn 0.3543 0.4666 -0.8104
vn 0.1087 0.4936 -0.8629
vn 0.6547 0.6347 -0.4105
vn 0.0910 0.8503 -0.5184
vn 0.0769 0.9303 0.3585
vn 0.3904 0.9165 -0.0879
vn -0.9556 -0.2850 -0.0749
vn -0.9579 -0.0308 -0.2854
vn -0.3487 -0.4460 0.8243
vn -0.9774 0.0353 0.2084
vn -0.8340 -0.2567 -0.4884
vn -0.8404 -0.4193 0.3433
vn -0.6218 -0.7829 -0.0203
vn -0.8087 -0.3732 0.4546
vn -0.9471 0.1188 -0.2982
vn -0.7236 0.6881 0.0542
vn -0.0743 0.3095 0.9480
vn 0.2242 -0.6492 0.7269
vn -0.5033 -0.0162 0.8640
vn -0.6734 0.0704 -0.7360
vn -0.0730 0.5955 -0.8001
vn 0.0174 0.9998 -0.0040
vn -0.4414 -0.6331 0.6359
vn -0.6319 -0.4921 -0.5987
vn -0.9433 0.2909 0.1600
vn -0.7397 0.6357 -0.2207
vn -0.7596 -0.6418 0.1055
vn 0.6444 0.5832 0.4946
vn 0.9298 0.3162 -0.1886
vn 0.0319 0.7354 0.6768
vn 0.2830 0.2326 0.9305
vn -0.1759 0.5379 0.8244
vn 0.2605 0.5968 0.7589
vn -0.3987 -0.0895 -0.9127
vn -0.6302 -0.4802 -0.6101
vn -0.3879 0.2132 -0.8967
vn -0.3990 -0.3441 -0.8499
vn 0.1000 -0.9837 0.1497
vn 0.3547 -0.9269 -0.1226
vn 0.1814 -0.9715 0.1523
vn 0.5188 -0.0608 0.8528
vn 0.5662 -0.3160 0.7613
vn 0.9903 -0.1342 0.0361
vn 0.8392 0.2470 -0.4844
vn 0.5685 0.0622 -0.8203
vn -0.2718 -0.9272 -0.2577
vn -0.1371 -0.7346 0.6645
vn -0.9687 -0.0058 0.2483
vn -0.9474 -0.2865 0.1429
vn 0.4271 -0.8945 -0.1323
vn -0.2797 -0.6961 0.6612
vn 0.0284 -0.1980 0.9798
vn 0.3072 -0.3402 0.8887
vn -0.1448 0.1375 0.9799
vn 0.8770 0.2311 0.4213
vn 0.6197 0.0879 0.7799
vn 0.6839 0.1532 -0.7133
vn -0.6279 0.2472 -0.7380
vn 0.8112 -0.4540 0.3685
vn 0.6253 -0.0829 -0.7760
vn 0.2889 0.9054 -0.3111
vn 0.9145 -0.4016 0.0493
vn -0.6792 0.5664 -0.4668
vn 0.4153 0.5560 0.7200
vn 0.5817 0.5259 0.6205
vn 0.5207 0.7681 0.3726
vn 0.3067 0.3276 0.8937
vn 0.7234 -0.0135 0.6903
vn -0.1285 0.9521 -0.2774
vn -0.5774 -0.8163 -0.0155
vn 0.9153 0.2359 0.3265
vn -0.9931 0.0959 0.0667
vn -0.9912 0.1058 0.0791
vn -0.9917 0.1128 0.0620
vn 0.5358 0.6889 0.4881
vn -0.0561 0.7261 0.6852
vn 0.1283 0.3391 0.9320
vn 0.0229 0.3361 0.9415
vn -0.2314 -0.0054 0.9729
vn -0.0867 -0.4079 0.9089
vn -0.4233 0.1417 0.8948
vn -0.4894 0.0733 0.8690
vn -0.5873 0.7088 0.3907
vn -0.4946 0.3111 0.8115
vn -0.0911 -0.1242 0.9881
vn 0.3924 -0.7425 0.5429
vn -0.2689 0.3665 0.8907
usemtl Default_OBJ
s 1
f 2/1/1 1/2/2 3/3/3
f 71/4/4 36/5/5 6/6/6
f 5/7/7 11/8/8 6/9/6
f 2/1/1 3/3/3 10/10/9
f 3/3/3 1/2/2 4/11/10
f 11/8/8 5/7/7 4/11/10
f 4/11/10 1/2/2 11/8/8
f 4/11/10 9/12/11 3/3/3
f 9/12/11 4/11/10 5/7/7
f 9/12/11 5/7/7 10/10/9
f 3/3/3 9/12/11 10/10/9
f 11/8/8 1/2/2 6/9/6
f 6/13/6 1/14/2 2/1/1
f 12/15/12 55/16/13 77/17/14
f 14/18/15 75/19/16 15/20/17
f 13/21/18 17/22/19 16/23/20
f 17/22/19 87/24/21 89/25/22
f 17/22/19 94/26/23 16/23/20
f 13/21/18 78/27/24 17/22/19
f 18/28/25 19/29/26 15/20/17
f 19/29/26 79/30/27 48/31/28
f 79/30/27 22/32/29 48/31/28
f 23/33/30 21/34/31 22/32/29
f 90/35/32 27/36/33 31/37/34
f 29/38/35 56/39/36 38/40/37
f 56/39/36 88/41/38 38/40/37
f 32/42/39 28/43/40 90/35/32
f 7/44/41 32/42/39 30/45/42
f 107/46/43 32/42/39 31/37/34
f 31/37/34 29/38/35 45/47/44
f 38/40/37 45/47/44 29/38/35
f 7/44/41 28/43/40 32/42/39
f 29/38/35 27/36/33 56/39/36
f 33/48/45 27/36/33 90/35/32
f 33/48/45 5/7/7 6/6/6
f 22/32/29 35/49/46 34/50/47
f 33/48/45 6/6/6 36/5/5
f 38/40/37 88/41/38 101/51/48
f 40/52/49 42/53/50 63/54/51
f 42/53/50 41/55/52 63/54/51
f 23/33/30 20/56/53 21/34/31
f 20/56/53 48/31/28 21/34/31
f 48/31/28 20/56/53 96/57/54
f 43/58/55 69/59/56 46/60/57
f 46/60/57 69/59/56 25/61/58
f 76/62/59 53/63/60 12/15/12
f 57/64/61 84/65/62 56/39/36
f 55/16/13 84/65/62 77/17/14
f 84/65/62 57/64/61 77/17/14
f 57/64/61 35/49/46 77/17/14
f 84/65/62 55/16/13 56/39/36
f 55/16/13 12/15/12 63/54/51
f 85/66/63 16/23/20 62/67/64
f 17/22/19 49/68/65 94/26/23
f 52/69/66 49/70/65 58/71/67
f 89/25/22 98/72/68 58/71/67
f 17/22/19 89/73/22 49/68/65
f 60/74/69 87/24/21 78/27/24
f 87/24/21 17/22/19 78/27/24
f 98/72/68 89/25/22 61/75/70
f 62/76/64 102/77/71 65/78/72
f 63/54/51 39/79/73 55/16/13
f 55/16/13 39/79/73 88/41/38
f 63/54/51 41/55/52 39/79/73
f 64/80/74 41/81/52 97/82/75
f 97/82/75 65/78/72 108/83/76
f 65/78/72 97/82/75 62/76/64
f 69/59/56 43/58/55 112/84/77
f 50/85/78 112/84/77 111/86/79
f 100/87/80 68/88/81 52/69/66
f 70/89/82 60/74/69 78/27/24
f 70/89/82 96/57/54 60/74/69
f 76/62/59 24/90/83 75/19/16
f 15/20/17 75/19/16 24/90/83
f 15/20/17 19/29/26 70/89/82
f 15/20/17 70/89/82 14/18/15
f 73/91/84 72/92/85 74/93/86
f 71/94/4 73/91/84 86/95/87
f 71/96/4 80/97/88 72/92/85
f 74/93/86 72/92/85 80/97/88
f 78/27/24 75/19/16 14/18/15
f 15/20/17 24/90/83 77/17/14
f 18/28/25 15/20/17 77/17/14
f 13/21/18 16/23/20 53/63/60
f 14/18/15 70/89/82 78/27/24
f 53/63/60 76/62/59 13/21/18
f 76/62/59 78/27/24 13/21/18
f 75/19/16 78/27/24 76/62/59
f 48/31/28 70/89/82 19/29/26
f 70/89/82 48/31/28 96/57/54
f 19/29/26 18/28/25 79/30/27
f 18/28/25 77/17/14 35/49/46
f 18/28/25 35/49/46 79/30/27
f 85/66/63 53/63/60 16/23/20
f 82/98/89 74/93/86 80/97/88
f 81/99/90 73/91/84 74/93/86
f 71/4/4 86/95/87 37/100/91
f 104/101/92 95/102/93 31/37/34
f 95/102/93 107/46/43 31/37/34
f 81/99/90 86/95/87 73/91/84
f 10/10/9 83/103/94 6/13/6
f 83/103/94 71/96/4 6/13/6
f 80/97/88 83/103/94 82/98/89
f 83/103/94 80/97/88 71/96/4
f 82/98/89 83/103/94 81/99/90
f 10/10/9 7/44/41 83/103/94
f 76/62/59 12/15/12 77/17/14
f 71/94/4 72/104/85 73/91/84
f 76/62/59 77/17/14 24/90/83
f 54/105/95 85/66/63 40/52/49
f 36/5/5 35/49/46 57/64/61
f 36/5/5 57/64/61 33/48/45
f 22/32/29 79/30/27 35/49/46
f 54/105/95 12/15/12 53/63/60
f 81/99/90 74/93/86 82/98/89
f 53/63/60 85/66/63 54/105/95
f 36/5/5 34/50/47 35/49/46
f 6/13/6 2/1/1 10/10/9
f 27/36/33 57/64/61 56/39/36
f 59/106/96 98/72/68 60/74/69
f 60/74/69 98/72/68 61/75/70
f 40/52/49 12/15/12 54/105/95
f 33/48/45 57/64/61 27/36/33
f 22/32/29 21/34/31 48/31/28
f 89/25/22 87/24/21 61/75/70
f 85/66/63 62/67/64 97/107/75
f 61/75/70 87/24/21 60/74/69
f 56/39/36 55/16/13 88/41/38
f 63/54/51 12/15/12 40/52/49
f 34/50/47 36/5/5 37/100/91
f 28/43/40 33/48/45 90/35/32
f 33/48/45 28/43/40 5/7/7
f 34/50/47 23/33/30 22/32/29
f 7/44/41 5/7/7 28/43/40
f 5/7/7 7/44/41 10/10/9
f 37/100/91 36/5/5 71/4/4
f 91/108/97 92/109/98 93/110/99
f 91/108/97 93/110/99 92/109/98
f 102/77/71 16/23/20 94/26/23
f 59/106/96 100/87/80 52/69/66
f 95/102/93 37/100/91 86/95/87
f 81/99/90 83/103/94 8/111/100
f 100/87/80 59/106/96 96/57/54
f 60/74/69 96/57/54 59/106/96
f 40/52/49 85/66/63 97/107/75
f 41/55/52 42/53/50 40/52/49
f 20/56/53 100/87/80 96/57/54
f 97/107/75 41/55/52 40/52/49
f 62/67/64 16/23/20 102/77/71
f 58/71/67 49/70/65 89/25/22
f 99/112/101 23/33/30 34/50/47
f 47/113/102 23/33/30 99/112/101
f 37/100/91 99/112/101 34/50/47
f 46/60/57 99/112/101 44/114/103
f 37/100/91 104/101/92 99/112/101
f 68/88/81 100/87/80 25/61/58
f 102/77/71 94/26/23 49/68/65
f 98/72/68 59/106/96 58/71/67
f 7/44/41 8/111/100 83/103/94
f 105/115/104 26/116/105 66/117/106
f 67/118/107 105/115/104 66/117/106
f 111/86/79 67/118/107 66/117/106
f 88/41/38 39/79/73 101/51/48
f 86/95/87 8/111/100 95/102/93
f 27/36/33 29/38/35 31/37/34
f 39/79/73 41/55/52 64/80/74
f 103/119/108 39/79/73 64/80/74
f 101/51/48 39/79/73 26/116/105
f 39/79/73 103/119/108 26/116/105
f 52/69/66 58/71/67 59/106/96
f 32/42/39 90/35/32 31/37/34
f 25/61/58 100/87/80 20/56/53
f 45/47/44 38/40/37 101/51/48
f 46/60/57 47/113/102 99/112/101
f 8/111/100 7/44/41 30/45/42
f 47/113/102 20/56/53 23/33/30
f 95/102/93 104/101/92 37/100/91
f 31/37/34 44/114/103 104/101/92
f 99/112/101 104/101/92 44/114/103
f 8/111/100 30/45/42 95/102/93
f 64/80/74 110/120/109 103/119/108
f 109/121/110 45/47/44 101/51/48
f 20/56/53 47/113/102 46/60/57
f 51/122/111 52/69/66 50/85/78
f 52/69/66 51/122/111 49/70/65
f 20/56/53 46/60/57 25/61/58
f 26/116/105 109/121/110 101/51/48
f 49/68/65 51/122/111 65/78/72
f 49/68/65 65/78/72 102/77/71
f 107/46/43 30/45/42 32/42/39
f 106/123/112 51/122/111 111/86/79
f 111/86/79 66/117/106 106/123/112
f 44/114/103 31/37/34 45/47/44
f 46/60/57 44/114/103 105/115/104
f 26/116/105 103/119/108 66/117/106
f 108/83/76 64/80/74 97/82/75
f 44/114/103 45/47/44 109/121/110
f 110/120/109 66/117/106 103/119/108
f 109/121/110 26/116/105 105/115/104
f 95/102/93 30/45/42 107/46/43
f 67/118/107 43/58/55 46/60/57
f 105/115/104 67/118/107 46/60/57
f 108/83/76 106/123/112 66/117/106
f 109/121/110 105/115/104 44/114/103
f 69/59/56 68/88/81 25/61/58
f 52/69/66 68/88/81 50/85/78
f 50/85/78 68/88/81 69/59/56
f 51/122/111 50/85/78 111/86/79
f 108/83/76 110/120/109 64/80/74
f 66/117/106 110/120/109 108/83/76
f 65/78/72 106/123/112 108/83/76
f 67/118/107 111/86/79 112/84/77
f 43/58/55 67/118/107 112/84/77
f 106/123/112 65/78/72 51/122/111
f 81/99/90 8/111/100 86/95/87
f 112/84/77 50/85/78 69/59/56
