# Blender v2.79 (sub 0) OBJ File: ''
# www.blender.org
mtllib teapotDecimated.mtl
o teapotWatertight
v -0.186666 0.279825 -0.653677
v -0.489600 0.248250 -0.456947
v 0.260585 0.253636 -0.611095
v -0.154950 0.015704 -0.440905
v 0.239509 0.018353 -0.400133
v 0.611808 0.207890 -0.247652
v -0.469116 0.017404 -0.110414
v -0.616160 0.172389 -0.098262
v -0.408811 0.776110 -0.227040
v -0.029779 0.784406 -0.458018
v 0.302790 0.784901 -0.370727
v 0.238288 0.009073 0.412519
v 0.479692 0.029041 -0.062876
v 0.614576 0.379193 -0.161581
v -0.674477 0.266539 -0.071269
v -0.034657 0.864736 -0.039995
v 0.058849 0.865736 0.006928
v 0.464494 0.785088 0.095970
v 0.804634 0.339754 -0.112484
v 0.945141 0.774321 -0.057127
v 0.640759 0.428695 0.088603
v -0.506600 0.684873 -0.078409
v -0.946028 0.664851 -0.067736
v -0.862359 0.615575 -0.028360
v 1.010995 0.778635 0.039345
v -0.467500 0.768332 0.013047
v -0.138331 0.981268 0.051152
v 0.077490 0.986247 -0.116395
v -0.863390 0.351148 0.042569
v 0.638478 0.252245 0.168734
v -0.685277 0.245346 0.056090
v -0.933398 0.624638 0.070438
v -0.547336 0.646665 0.073034
v 0.878504 0.765277 0.026738
v -0.035876 0.863648 0.038149
v 0.092239 0.980391 0.086422
v -0.296301 0.029957 0.384212
v -0.291982 0.779904 0.364789
v 0.190193 0.781530 0.422252
v -0.423142 0.250612 0.531718
v 0.481192 0.264680 0.475088
v -0.158942 0.413859 0.626901
v 0.200187 0.248054 0.637847
vn -0.2370 -0.0910 -0.9672
vn 0.3866 -0.1503 -0.9099
vn -0.1469 -0.8732 -0.4646
vn -0.0477 0.7307 -0.6810
vn 0.4148 0.7565 -0.5056
vn -0.7188 -0.1742 -0.6730
vn -0.4521 -0.8858 -0.1042
vn 0.2447 -0.8720 -0.4240
vn 0.7752 -0.3601 -0.5189
vn -0.5528 0.7342 -0.3940
vn -0.7588 -0.6048 -0.2416
vn 0.2210 -0.8758 0.4290
vn 0.4942 -0.8689 -0.0255
vn -0.7490 0.1517 -0.6450
vn 0.5216 0.4977 -0.6930
vn 0.6429 0.7556 0.1252
vn -0.3818 0.7389 -0.5553
vn 0.5950 0.7965 0.1073
vn 0.7746 -0.4451 -0.4494
vn 0.2094 0.6404 -0.7389
vn 0.3421 0.7268 0.5956
vn -0.7545 0.4128 -0.5102
vn -0.4294 0.8998 0.0767
vn 0.7853 0.5066 0.3558
vn -0.6727 0.4659 -0.5748
vn 0.7150 -0.4090 -0.5670
vn -0.5857 0.7468 0.3150
vn -0.8816 0.3357 0.3317
vn 0.4236 0.3744 -0.8248
vn -0.7971 -0.3874 0.4632
vn 0.8070 -0.4112 0.4238
vn -0.7767 -0.5580 0.2920
vn -0.7950 0.2542 0.5507
vn -0.5643 0.2602 0.7835
vn -0.2122 0.8216 0.5290
vn 0.2652 0.7414 0.6164
vn 0.5886 0.3249 0.7402
vn -0.4053 0.7489 0.5243
vn -0.2819 -0.8479 0.4489
vn -0.6114 -0.2145 0.7617
vn 0.7223 -0.1465 0.6759
vn 0.2148 -0.2122 0.9533
vn -0.1953 0.1828 0.9635
usemtl None
s 1
f 1//1 3//2 4//3
f 1//1 10//4 11//5
f 1//1 11//5 3//2
f 2//6 1//1 4//3
f 2//6 4//3 7//7
f 4//3 3//2 5//8
f 3//2 6//9 5//8
f 3//2 11//5 6//9
f 1//1 2//6 9//10
f 2//6 7//7 8//11
f 1//1 9//10 10//4
f 5//8 12//12 4//3
f 5//8 6//9 13//13
f 2//6 8//11 15//14
f 6//9 11//5 14//15
f 2//6 15//14 9//10
f 11//5 18//16 14//15
f 9//10 16//17 10//4
f 10//4 16//17 17//18
f 14//15 19//19 6//9
f 14//15 20//20 19//19
f 14//15 18//16 21//21
f 9//10 15//14 22//22
f 9//10 22//22 26//23
f 10//4 17//18 18//16
f 10//4 18//16 11//5
f 14//15 21//21 20//20
f 19//19 20//20 25//24
f 23//25 24//26 15//14
f 23//25 22//22 24//26
f 20//20 21//21 34//27
f 9//10 26//23 16//17
f 16//17 27//28 28//29
f 16//17 28//29 17//18
f 7//7 4//3 12//12
f 5//8 13//13 12//12
f 8//11 7//7 31//30
f 13//13 6//9 30//31
f 29//32 15//14 8//11
f 6//9 19//19 30//31
f 29//32 8//11 31//30
f 29//32 23//25 15//14
f 15//14 31//30 33//33
f 29//32 32//34 23//25
f 31//30 15//14 24//26
f 24//26 32//34 31//30
f 24//26 22//22 33//33
f 32//34 24//26 33//33
f 15//14 33//33 22//22
f 23//25 32//34 26//23
f 23//25 26//23 22//22
f 16//17 26//23 35//35
f 18//16 17//18 39//36
f 20//20 34//27 25//24
f 35//35 27//28 16//17
f 17//18 28//29 36//37
f 28//29 27//28 36//37
f 31//30 32//34 29//32
f 19//19 25//24 30//31
f 30//31 25//24 21//21
f 21//21 25//24 34//27
f 32//34 33//33 26//23
f 35//35 26//23 38//38
f 17//18 35//35 39//36
f 35//35 17//18 27//28
f 17//18 36//37 27//28
f 31//30 7//7 37//39
f 13//13 30//31 12//12
f 31//30 40//40 33//33
f 30//31 21//21 41//41
f 21//21 18//16 41//41
f 33//33 38//38 26//23
f 33//33 40//40 38//38
f 35//35 38//38 39//36
f 7//7 12//12 37//39
f 31//30 37//39 40//40
f 12//12 30//31 41//41
f 41//41 18//16 39//36
f 12//12 41//41 43//42
f 40//40 42//43 38//38
f 41//41 39//36 43//42
f 38//38 42//43 39//36
f 40//40 37//39 12//12
f 40//40 12//12 43//42
f 39//36 42//43 43//42
f 43//42 42//43 40//40
